<svg id="visual" viewBox="0 0 900 600" width="900" height="600" xmlns="http://www.w3.org/2000/svg" xmlns:xlink="http://www.w3.org/1999/xlink" version="1.1"><rect x="0" y="0" width="900" height="600" fill="#001220"></rect><defs><linearGradient id="grad1_0" x1="33.3%" y1="100%" x2="100%" y2="0%"><stop offset="20%" stop-color="#fbae3c" stop-opacity="1"></stop><stop offset="80%" stop-color="#fbae3c" stop-opacity="1"></stop></linearGradient></defs><defs><linearGradient id="grad1_1" x1="33.3%" y1="100%" x2="100%" y2="0%"><stop offset="20%" stop-color="#fbae3c" stop-opacity="1"></stop><stop offset="80%" stop-color="#96446e" stop-opacity="1"></stop></linearGradient></defs><defs><linearGradient id="grad1_2" x1="33.3%" y1="100%" x2="100%" y2="0%"><stop offset="20%" stop-color="#001220" stop-opacity="1"></stop><stop offset="80%" stop-color="#96446e" stop-opacity="1"></stop></linearGradient></defs><defs><linearGradient id="grad2_0" x1="0%" y1="100%" x2="66.7%" y2="0%"><stop offset="20%" stop-color="#fbae3c" stop-opacity="1"></stop><stop offset="80%" stop-color="#fbae3c" stop-opacity="1"></stop></linearGradient></defs><defs><linearGradient id="grad2_1" x1="0%" y1="100%" x2="66.7%" y2="0%"><stop offset="20%" stop-color="#96446e" stop-opacity="1"></stop><stop offset="80%" stop-color="#fbae3c" stop-opacity="1"></stop></linearGradient></defs><defs><linearGradient id="grad2_2" x1="0%" y1="100%" x2="66.7%" y2="0%"><stop offset="20%" stop-color="#96446e" stop-opacity="1"></stop><stop offset="80%" stop-color="#001220" stop-opacity="1"></stop></linearGradient></defs><g transform="translate(900, 600)"><path d="M-486.7 0C-484.7 -67.9 -482.6 -135.8 -449.7 -186.3C-416.8 -236.7 -353 -269.7 -301.9 -301.9C-250.8 -334.2 -212.4 -365.7 -164.2 -396.3C-116 -427 -58 -456.9 0 -486.7L0 0Z" fill="#3d3056"></path><path d="M-324.5 0C-323.1 -45.3 -321.7 -90.5 -299.8 -124.2C-277.9 -157.8 -235.4 -179.8 -201.3 -201.3C-167.2 -222.8 -141.6 -243.8 -109.4 -264.2C-77.3 -284.7 -38.7 -304.6 0 -324.5L0 0Z" fill="#e1685e"></path><path d="M-162.2 0C-161.6 -22.6 -160.9 -45.3 -149.9 -62.1C-138.9 -78.9 -117.7 -89.9 -100.6 -100.6C-83.6 -111.4 -70.8 -121.9 -54.7 -132.1C-38.7 -142.3 -19.3 -152.3 0 -162.2L0 0Z" fill="#fbae3c"></path></g><g transform="translate(0, 0)"><path d="M486.7 0C479.8 62.7 472.9 125.4 449.7 186.3C426.5 247.1 387.2 306.2 334.5 334.5C281.7 362.8 215.6 360.4 157.7 380.6C99.7 400.9 49.8 443.8 0 486.7L0 0Z" fill="#3d3056"></path><path d="M324.5 0C319.9 41.8 315.2 83.6 299.8 124.2C284.4 164.8 258.1 204.1 223 223C187.8 241.8 143.8 240.3 105.1 253.8C66.5 267.3 33.2 295.9 0 324.5L0 0Z" fill="#e1685e"></path><path d="M162.2 0C159.9 20.9 157.6 41.8 149.9 62.1C142.2 82.4 129.1 102.1 111.5 111.5C93.9 120.9 71.9 120.1 52.6 126.9C33.2 133.6 16.6 147.9 0 162.2L0 0Z" fill="#fbae3c"></path></g></svg>