<svg xmlns="http://www.w3.org/2000/svg" version="1.1" xmlns:xlink="http://www.w3.org/1999/xlink" xmlns:svgjs="http://svgjs.dev/svgjs" width="1500" height="1500" viewBox="0 0 1500 1500"><rect width="1500" height="1500" fill="#000000"></rect><g transform="matrix(0.6666666666666666,0,0,0.6666666666666666,249.39393939393938,666.7216030732145)"><svg viewBox="0 0 396 66" data-background-color="#ddcaea" preserveAspectRatio="xMidYMid meet" height="250" width="1500" xmlns="http://www.w3.org/2000/svg" xmlns:xlink="http://www.w3.org/1999/xlink"><g id="tight-bounds" transform="matrix(1,0,0,1,0.2400000000000091,-0.02175481699299553)"><svg viewBox="0 0 395.52 66.04350963398599" height="66.04350963398599" width="395.52"><g><svg viewBox="0 0 523.1200867334483 87.35003663003661" height="66.04350963398599" width="395.52"><g><svg viewBox="0 0 395.52 87.35003663003661" height="87.35003663003661" width="395.52"><g id="textblocktransform"><svg viewBox="0 0 395.52 87.35003663003661" height="87.35003663003661" width="395.52" id="textblock"><g><svg viewBox="0 0 395.52 87.35003663003661" height="87.35003663003661" width="395.52"><g transform="matrix(1,0,0,1,0,0)"><svg width="395.52" viewBox="3.1 -35.77 163.79 36.17" height="87.35003663003661" data-palette-color="#ffffff"><path d="M30.95-5.95L30.95-5.95Q31.2-5.95 31.38-5.78L31.38-5.78 32.38-4.7Q31.28-3.53 29.98-2.59 28.68-1.65 27.14-0.99 25.6-0.33 23.76 0.04 21.93 0.4 19.73 0.4L19.73 0.4Q16.05 0.4 12.99-0.89 9.93-2.18 7.74-4.54 5.55-6.9 4.33-10.25 3.1-13.6 3.1-17.7L3.1-17.7Q3.1-21.73 4.36-25.05 5.63-28.38 7.91-30.76 10.2-33.15 13.39-34.46 16.57-35.77 20.43-35.77L20.43-35.77Q22.35-35.77 23.95-35.49 25.55-35.2 26.94-34.66 28.33-34.13 29.55-33.33 30.78-32.52 31.95-31.48L31.95-31.48 31.18-30.35Q30.98-30.05 30.55-30.05L30.55-30.05Q30.33-30.05 29.98-30.31 29.63-30.58 29.09-30.96 28.55-31.35 27.79-31.81 27.03-32.27 25.98-32.66 24.93-33.05 23.55-33.31 22.18-33.58 20.43-33.58L20.43-33.58Q17.2-33.58 14.5-32.46 11.8-31.35 9.85-29.29 7.9-27.23 6.81-24.29 5.73-21.35 5.73-17.7L5.73-17.7Q5.73-13.95 6.8-11 7.88-8.05 9.78-6.01 11.68-3.98 14.26-2.89 16.85-1.8 19.88-1.8L19.88-1.8Q21.78-1.8 23.26-2.05 24.75-2.3 26-2.8 27.25-3.3 28.33-4.03 29.4-4.75 30.45-5.73L30.45-5.73Q30.58-5.83 30.69-5.89 30.8-5.95 30.95-5.95ZM56.05 0L55.1 0Q54.35 0 54.17-0.7L54.17-0.7 53.82-3.88Q52.8-2.88 51.79-2.08 50.77-1.28 49.67-0.73 48.57-0.18 47.3 0.11 46.02 0.4 44.5 0.4L44.5 0.4Q43.22 0.4 42.02 0.03 40.82-0.35 39.9-1.13 38.97-1.9 38.41-3.11 37.85-4.33 37.85-6.03L37.85-6.03Q37.85-7.6 38.75-8.95 39.65-10.3 41.56-11.3 43.47-12.3 46.49-12.9 49.5-13.5 53.72-13.6L53.72-13.6 53.72-16.2Q53.72-19.65 52.24-21.51 50.75-23.38 47.82-23.38L47.82-23.38Q46.02-23.38 44.76-22.88 43.5-22.38 42.62-21.78 41.75-21.18 41.2-20.68 40.65-20.18 40.27-20.18L40.27-20.18Q39.77-20.18 39.52-20.63L39.52-20.63 39.1-21.35Q41.05-23.3 43.2-24.3 45.35-25.3 48.07-25.3L48.07-25.3Q50.07-25.3 51.57-24.66 53.07-24.03 54.06-22.84 55.05-21.65 55.55-19.96 56.05-18.28 56.05-16.2L56.05-16.2 56.05 0ZM45.1-1.33L45.1-1.33Q46.55-1.33 47.76-1.64 48.97-1.95 50.01-2.51 51.05-3.08 51.95-3.85 52.85-4.63 53.72-5.53L53.72-5.53 53.72-12Q50.17-11.9 47.61-11.46 45.05-11.03 43.39-10.28 41.72-9.53 40.94-8.49 40.15-7.45 40.15-6.13L40.15-6.13Q40.15-4.88 40.56-3.96 40.97-3.05 41.65-2.46 42.32-1.88 43.22-1.6 44.12-1.33 45.1-1.33ZM65.92 0L63.55 0 63.55-24.88 64.8-24.88Q65.22-24.88 65.41-24.7 65.6-24.53 65.62-24.1L65.62-24.1 65.82-18.85Q67.02-21.88 69.02-23.59 71.02-25.3 73.95-25.3L73.95-25.3Q75.07-25.3 76.02-25.06 76.97-24.83 77.82-24.38L77.82-24.38 77.5-22.73Q77.42-22.33 77-22.33L77-22.33Q76.85-22.33 76.57-22.43 76.3-22.53 75.88-22.65 75.47-22.78 74.87-22.88 74.27-22.98 73.5-22.98L73.5-22.98Q70.67-22.98 68.86-21.23 67.05-19.48 65.92-16.18L65.92-16.18 65.92 0ZM90.19 0.4L90.19 0.4Q87.67 0.4 86.26-1 84.84-2.4 84.84-5.33L84.84-5.33 84.84-22.33 81.27-22.33Q80.99-22.33 80.82-22.48 80.64-22.63 80.64-22.9L80.64-22.9 80.64-23.83 84.89-24.13 85.49-33.02Q85.52-33.25 85.68-33.43 85.84-33.6 86.12-33.6L86.12-33.6 87.24-33.6 87.24-24.1 95.07-24.1 95.07-22.33 87.24-22.33 87.24-5.45Q87.24-4.42 87.51-3.69 87.77-2.95 88.23-2.48 88.69-2 89.32-1.78 89.94-1.55 90.67-1.55L90.67-1.55Q91.57-1.55 92.22-1.81 92.87-2.08 93.34-2.39 93.82-2.7 94.12-2.96 94.42-3.23 94.59-3.23L94.59-3.23Q94.79-3.23 94.99-2.98L94.99-2.98 95.64-1.93Q94.69-0.88 93.23-0.24 91.77 0.4 90.19 0.4ZM101.92-24.88L104.29-24.88 104.29 0 101.92 0 101.92-24.88ZM105.34-33.45L105.34-33.45Q105.34-33 105.15-32.61 104.97-32.23 104.67-31.93 104.37-31.63 103.97-31.45 103.57-31.28 103.12-31.28L103.12-31.28Q102.67-31.28 102.27-31.45 101.87-31.63 101.57-31.93 101.27-32.23 101.09-32.61 100.92-33 100.92-33.45L100.92-33.45Q100.92-33.9 101.09-34.31 101.27-34.73 101.57-35.02 101.87-35.33 102.27-35.5 102.67-35.68 103.12-35.68L103.12-35.68Q103.57-35.68 103.97-35.5 104.37-35.33 104.67-35.02 104.97-34.73 105.15-34.31 105.34-33.9 105.34-33.45ZM127.31-22.63L126.79-21.8Q126.61-21.45 126.24-21.45L126.24-21.45Q125.96-21.45 125.53-21.76 125.09-22.08 124.38-22.46 123.66-22.85 122.63-23.16 121.59-23.48 120.09-23.48L120.09-23.48Q118.74-23.48 117.63-23.09 116.51-22.7 115.73-22.05 114.94-21.4 114.5-20.54 114.06-19.68 114.06-18.73L114.06-18.73Q114.06-17.55 114.66-16.78 115.26-16 116.24-15.45 117.21-14.9 118.45-14.5 119.69-14.1 120.99-13.7 122.29-13.3 123.53-12.81 124.76-12.33 125.74-11.6 126.71-10.88 127.31-9.83 127.91-8.78 127.91-7.28L127.91-7.28Q127.91-5.65 127.33-4.25 126.74-2.85 125.63-1.83 124.51-0.8 122.89-0.2 121.26 0.4 119.19 0.4L119.19 0.4Q116.56 0.4 114.66-0.44 112.76-1.28 111.26-2.63L111.26-2.63 111.84-3.48Q111.96-3.68 112.11-3.78 112.26-3.88 112.54-3.88L112.54-3.88Q112.86-3.88 113.34-3.48 113.81-3.08 114.58-2.61 115.34-2.15 116.48-1.75 117.61-1.35 119.29-1.35L119.29-1.35Q120.86-1.35 122.06-1.79 123.26-2.23 124.06-2.98 124.86-3.73 125.28-4.74 125.69-5.75 125.69-6.88L125.69-6.88Q125.69-8.13 125.09-8.95 124.49-9.78 123.51-10.35 122.54-10.93 121.3-11.33 120.06-11.73 118.75-12.13 117.44-12.53 116.2-13 114.96-13.48 113.99-14.2 113.01-14.93 112.41-15.96 111.81-17 111.81-18.55L111.81-18.55Q111.81-19.88 112.39-21.1 112.96-22.33 114.03-23.25 115.09-24.18 116.61-24.73 118.14-25.28 120.04-25.28L120.04-25.28Q122.31-25.28 124.08-24.63 125.84-23.98 127.31-22.63L127.31-22.63ZM136.96 0L134.59 0 134.59-24.88 135.89-24.88Q136.54-24.88 136.64-24.25L136.64-24.25 136.86-20.65Q137.59-21.68 138.41-22.53 139.24-23.38 140.17-23.99 141.11-24.6 142.17-24.94 143.24-25.28 144.41-25.28L144.41-25.28Q147.14-25.28 148.76-23.69 150.39-22.1 150.96-19.28L150.96-19.28Q151.41-20.83 152.22-21.95 153.04-23.08 154.09-23.81 155.14-24.55 156.37-24.91 157.61-25.28 158.91-25.28L158.91-25.28Q160.76-25.28 162.24-24.66 163.71-24.05 164.75-22.85 165.79-21.65 166.34-19.9 166.89-18.15 166.89-15.9L166.89-15.9 166.89 0 164.49 0 164.49-15.9Q164.49-19.55 162.91-21.46 161.34-23.38 158.41-23.38L158.41-23.38Q157.11-23.38 155.92-22.9 154.74-22.43 153.82-21.49 152.91-20.55 152.37-19.15 151.84-17.75 151.84-15.9L151.84-15.9 151.84 0 149.46 0 149.46-15.9Q149.46-19.53 148.01-21.45 146.56-23.38 143.79-23.38L143.79-23.38Q141.76-23.38 140.04-22.16 138.31-20.95 136.96-18.8L136.96-18.8 136.96 0Z" opacity="1" transform="matrix(1,0,0,1,0,0)" fill="#ffffff" class="wordmark-text-0" data-fill-palette-color="primary" id="text-0"></path></svg></g></svg></g></svg></g></svg></g><g transform="matrix(1,0,0,1,416.1412472474725,1.4238055970695953)"><svg viewBox="0 0 106.97883948597577 84.50242543589742" height="84.50242543589742" width="106.97883948597577"><g><svg xmlns="http://www.w3.org/2000/svg" xmlns:xlink="http://www.w3.org/1999/xlink" xmlns:a="http://ns.adobe.com/AdobeSVGViewerExtensions/3.0/" version="1.1" x="0" y="0" viewBox="0 0 37.539 29.652" enable-background="new -1 -7.776 40 40" xml:space="preserve" height="84.50242543589742" width="106.97883948597577" class="icon-icon-0" data-fill-palette-color="accent" id="icon-0"><polygon points="31.104,23.375 37.539,10.883 13.469,10.883 7.823,0 0,0 0,3.69 5.551,3.69 15.678,23.375 31.104,23.375 " fill="#ffffff" data-fill-palette-color="accent"></polygon><path d="M18.549 29.589c0.788 0 1.419-0.284 1.956-0.82 0.536-0.536 0.819-1.198 0.819-1.956 0-0.787-0.283-1.45-0.819-1.985-0.537-0.537-1.168-0.821-1.956-0.821-0.79 0-1.452 0.284-1.988 0.821-0.536 0.535-0.788 1.198-0.788 1.985 0 0.758 0.251 1.42 0.788 1.956C17.097 29.305 17.759 29.589 18.549 29.589L18.549 29.589z" fill="#ffffff" data-fill-palette-color="accent"></path><path d="M28.391 29.652c-0.788 0-1.42-0.284-1.956-0.82s-0.82-1.199-0.82-1.956c0-0.788 0.284-1.45 0.82-1.986 0.536-0.537 1.168-0.82 1.956-0.82 0.789 0 1.451 0.283 1.987 0.82 0.537 0.536 0.788 1.198 0.788 1.986 0 0.757-0.251 1.42-0.788 1.956C29.842 29.368 29.18 29.652 28.391 29.652L28.391 29.652z" fill="#ffffff" data-fill-palette-color="accent"></path></svg></g></svg></g></svg></g><defs></defs></svg><rect width="395.52" height="66.04350963398599" fill="none" stroke="none" visibility="hidden"></rect></g></svg></g></svg>